<svg width="14" height="14" viewBox="0 0 14 14" fill="none" xmlns="http://www.w3.org/2000/svg">
<g clip-path="url(#clip0_115_1153)">
<path d="M3.56119 3.78076L2.34829 3.87447C2.01079 3.90055 1.7102 4.07744 1.52355 4.35976L0.12474 6.47539C-0.0168171 6.68949 -0.0393208 6.95742 0.0645026 7.19214C0.168353 7.42686 0.38177 7.59043 0.635381 7.62972L1.74594 7.80171C2.00573 6.42305 2.62763 5.04778 3.56119 3.78076Z" fill="white"/>
<path d="M6.19829 12.254L6.37031 13.3645C6.4096 13.6181 6.57317 13.8316 6.80786 13.9354C6.9055 13.9786 7.00886 13.9999 7.1117 13.9999C7.25615 13.9999 7.3996 13.9578 7.52464 13.8751L9.64032 12.4764C9.92264 12.2897 10.0995 11.9891 10.1256 11.6516L10.2193 10.4387C8.95222 11.3723 7.57698 11.9942 6.19829 12.254Z" fill="white"/>
<path d="M5.78062 11.4843C5.81917 11.4843 5.85794 11.4811 5.89664 11.4747C6.47424 11.3781 7.03096 11.2154 7.56202 11.0024L2.99757 6.43799C2.78461 6.96903 2.62192 7.52574 2.52534 8.10337C2.48728 8.33106 2.56365 8.56302 2.72686 8.72626L5.27375 11.2731C5.40927 11.4086 5.59217 11.4843 5.78062 11.4843Z" fill="white"/>
<path d="M12.8837 6.20706C14.0006 4.04764 14.042 1.76565 13.9836 0.695428C13.9636 0.328724 13.6713 0.0363669 13.3045 0.0163788C13.1303 0.00686323 12.9238 0 12.691 0C11.4943 0 9.6007 0.18126 7.79291 1.11633C6.35623 1.85944 4.47234 3.49571 3.36088 5.64606C3.374 5.65631 3.38683 5.66719 3.39891 5.67928L8.32075 10.6011C8.33283 10.6132 8.34369 10.626 8.35394 10.6391C10.5043 9.52764 12.1406 7.64375 12.8837 6.20706ZM8.14012 2.95966C8.93967 2.16011 10.2407 2.16003 11.0403 2.95966C11.4277 3.34699 11.641 3.862 11.641 4.40977C11.641 4.95755 11.4277 5.47256 11.0403 5.85988C10.6406 6.25962 10.1153 6.45953 9.59023 6.45958C9.06499 6.45961 8.53996 6.25973 8.14012 5.85988C7.75277 5.47256 7.53944 4.95755 7.53944 4.40977C7.53944 3.862 7.75277 3.34699 8.14012 2.95966Z" fill="white"/>
<path d="M8.72016 5.27988C9.1999 5.75962 9.98057 5.75965 10.4603 5.27988C10.6927 5.04746 10.8207 4.73847 10.8207 4.4098C10.8207 4.08113 10.6927 3.77214 10.4603 3.53975C10.2205 3.29986 9.90534 3.17993 9.59023 3.17993C9.27515 3.17993 8.96004 3.29986 8.72018 3.53975C8.48779 3.77214 8.35976 4.08113 8.35976 4.4098C8.35976 4.73847 8.48776 5.04748 8.72016 5.27988Z" fill="white"/>
<path d="M0.418494 11.5372C0.523466 11.5372 0.628439 11.4972 0.708501 11.4171L2.04761 10.078C2.20779 9.91781 2.20779 9.65812 2.04761 9.49794C1.88745 9.33776 1.62774 9.33776 1.46756 9.49794L0.128458 10.837C-0.0317213 10.9972 -0.0317213 11.2569 0.128458 11.4171C0.208548 11.4972 0.313521 11.5372 0.418494 11.5372Z" fill="white"/>
<path d="M3.27483 10.7252C3.11468 10.5651 2.85496 10.5651 2.69478 10.7252L0.120234 13.2998C-0.0399457 13.46 -0.0399457 13.7197 0.120234 13.8798C0.200324 13.9599 0.305296 14 0.410269 14C0.515242 14 0.620214 13.9599 0.700277 13.8798L3.2748 11.3053C3.43501 11.1451 3.43501 10.8854 3.27483 10.7252Z" fill="white"/>
<path d="M3.92195 11.9524L2.58287 13.2915C2.42269 13.4517 2.42269 13.7114 2.58287 13.8716C2.66296 13.9516 2.76794 13.9917 2.87288 13.9917C2.97783 13.9917 3.08283 13.9517 3.16289 13.8716L4.50199 12.5325C4.66217 12.3723 4.66217 12.1126 4.50199 11.9524C4.34184 11.7922 4.08213 11.7922 3.92195 11.9524Z" fill="white"/>
</g>
<defs>
<clipPath id="clip0_115_1153">
<rect width="14" height="14" fill="white"/>
</clipPath>
</defs>
</svg>
