<svg width="21" height="21" viewBox="0 0 21 21" fill="none" xmlns="http://www.w3.org/2000/svg">
<g clip-path="url(#clip0_115_1203)">
<path d="M15.5162 2.12874V1.34944C15.5162 0.611157 14.9174 0.0123291 14.1832 0.0123291C13.4449 0.0123291 12.8461 0.611157 12.8461 1.34534V2.12053H8.15391V1.34944C8.15391 0.611157 7.55508 0.0123291 6.8168 0.0123291C6.07852 0.0123291 5.48379 0.615259 5.48379 1.34944V2.12463C2.44453 2.21487 0 4.71272 0 7.77249V15.3399C0 18.453 2.53477 20.9877 5.64785 20.9877H15.3562C18.4693 20.9877 21.0041 18.453 21.0041 15.3399V7.77249C21 4.71272 18.5555 2.21487 15.5162 2.12874ZM15.5162 11.1768L10.5328 16.1602C10.0119 16.6811 9.16699 16.6811 8.64609 16.1602L6.43945 13.9535C5.89395 13.4573 5.85703 12.6123 6.35332 12.0668C6.84961 11.5213 7.69453 11.4844 8.24004 11.9807C8.26875 12.0094 8.29746 12.0381 8.32617 12.0668L9.58945 13.3301L13.6295 9.28596C14.175 8.78967 15.0199 8.82659 15.5162 9.37209C15.9838 9.88069 15.9838 10.66 15.5162 11.1768Z" fill="url(#paint0_linear_115_1203)"/>
</g>
<defs>
<linearGradient id="paint0_linear_115_1203" x1="10.5" y1="0.180493" x2="10.5" y2="20.6645" gradientUnits="userSpaceOnUse">
<stop stop-color="#F68C1E"/>
<stop offset="1" stop-color="#FF4B05"/>
</linearGradient>
<clipPath id="clip0_115_1203">
<rect width="21" height="21" fill="white"/>
</clipPath>
</defs>
</svg>
