<svg width="24" height="24" viewBox="0 0 24 24" fill="none" xmlns="http://www.w3.org/2000/svg">
<path d="M9.25779 18.1359C9.13591 18.1359 9.01872 18.0891 8.92497 18L5.1281 14.2031C4.95466 14.0297 4.94529 13.7484 5.10466 13.5656L14.8078 2.42812C14.9343 2.27812 15.1172 2.19375 15.314 2.18437L20.3953 2.01562H20.4187C20.6062 2.01562 20.789 2.09062 20.9156 2.22656C21.0469 2.3625 21.1172 2.54531 21.1078 2.73281L20.939 7.81406C20.9344 8.00625 20.8453 8.19375 20.6953 8.32031L9.56716 18.0187C9.4781 18.0938 9.37029 18.1359 9.25779 18.1359Z" fill="black"/>
<path d="M20.4094 2.4844L15.3281 2.65315C15.2625 2.65315 15.2063 2.68596 15.1641 2.73284L5.46094 13.8657L9.25781 17.6625L20.3906 7.96409C20.4375 7.9219 20.4703 7.86096 20.4703 7.80002L20.6437 2.71878C20.6484 2.58753 20.5406 2.47971 20.4094 2.4844Z" fill="url(#paint0_linear_115_1588)"/>
<path d="M20.3906 7.96411L9.25781 17.6672L7.35938 15.7688L20.5781 2.55005C20.6203 2.59224 20.6484 2.65317 20.6437 2.71411L20.475 7.80005C20.4703 7.86567 20.4422 7.92661 20.3906 7.96411Z" fill="url(#paint1_linear_115_1588)"/>
<path d="M4.4906 20.7C4.36873 20.7 4.25154 20.6531 4.15779 20.564L2.56404 18.9703C2.47498 18.8812 2.4281 18.764 2.4281 18.6375C2.4281 18.5109 2.47498 18.3937 2.56404 18.3047L5.27341 15.5953C5.36248 15.5015 5.48435 15.4594 5.60623 15.4594C5.7281 15.4594 5.84529 15.5062 5.93904 15.5953L7.53279 17.189C7.7156 17.3719 7.7156 17.6672 7.53279 17.85L4.82341 20.5594C4.72966 20.6531 4.60779 20.7 4.4906 20.7Z" fill="black"/>
<path d="M5.60154 15.9329L7.19529 17.5219L4.4906 20.2313L2.89685 18.6375L5.60154 15.9329Z" fill="url(#paint2_linear_115_1588)"/>
<path d="M6.39841 16.725L7.19529 17.5219L4.4906 20.2312L3.69373 19.4344L6.39841 16.725Z" fill="url(#paint3_linear_115_1588)"/>
<path d="M3.33749 21.9844C2.75155 21.9844 2.19843 21.7547 1.78593 21.3422C1.37343 20.9297 1.14374 20.3766 1.14374 19.7907C1.14374 19.2047 1.37343 18.6516 1.78593 18.2391C2.19843 17.8266 2.75155 17.5969 3.33749 17.5969C3.92343 17.5969 4.47655 17.8266 4.88905 18.2391C5.74686 19.0969 5.74686 20.4891 4.88905 21.3422C4.47655 21.7547 3.92343 21.9844 3.33749 21.9844Z" fill="black"/>
<path d="M3.33749 21.5157C4.29018 21.5157 5.06249 20.7434 5.06249 19.7907C5.06249 18.838 4.29018 18.0657 3.33749 18.0657C2.3848 18.0657 1.61249 18.838 1.61249 19.7907C1.61249 20.7434 2.3848 21.5157 3.33749 21.5157Z" fill="url(#paint4_linear_115_1588)"/>
<path d="M2.11874 21.0093C2.79374 21.6843 3.88593 21.6843 4.56093 21.0093C5.23593 20.3343 5.23593 19.2421 4.56093 18.5671L2.11874 21.0093Z" fill="url(#paint5_linear_115_1588)"/>
<path d="M8.475 21.4641C7.69688 21.4641 6.96094 21.1594 6.4125 20.611C6.22969 20.4282 6.22969 20.1329 6.4125 19.95L7.425 18.9375L4.19531 15.7032L3.18281 16.7157C3.09375 16.8047 2.97656 16.8516 2.85 16.8516C2.72344 16.8516 2.60625 16.8047 2.51719 16.7157C1.96406 16.1625 1.66406 15.4313 1.66406 14.6532C1.66406 13.875 1.96875 13.1391 2.51719 12.5907L3.225 11.8829C3.48281 11.625 3.825 11.4797 4.19531 11.4797C4.56562 11.4797 4.90312 11.6204 5.16562 11.8829L11.25 17.9672C11.7844 18.5016 11.7844 19.3688 11.25 19.9032L10.5422 20.611C9.98906 21.1594 9.25313 21.4594 8.475 21.4641Z" fill="black"/>
<path d="M10.9125 18.2953C11.2641 18.6468 11.2641 19.2187 10.9125 19.5703L10.2047 20.2781C9.24844 21.2343 7.69688 21.2343 6.74063 20.2781L7.76719 19.2515C7.94531 19.0734 7.94531 18.7921 7.76719 18.614L4.51406 15.3609C4.33594 15.1828 4.05469 15.1828 3.87656 15.3609L2.85 16.3875C1.89375 15.4312 1.89375 13.8796 2.85 12.9234L3.55781 12.2156C3.90938 11.864 4.48125 11.864 4.83281 12.2156L10.9125 18.2953Z" fill="url(#paint6_linear_115_1588)"/>
<path d="M6.14062 16.9875L7.76719 18.6141C7.94531 18.7922 7.94531 19.0735 7.76719 19.2516L6.74063 20.2782C7.69688 21.2344 9.24844 21.2344 10.2047 20.2782L10.9125 19.5704C11.2641 19.2188 11.2641 18.6469 10.9125 18.2954L7.875 15.2532L6.14062 16.9875Z" fill="url(#paint7_linear_115_1588)"/>
<path d="M14.7422 18.1359C14.6344 18.1359 14.5219 18.0984 14.4328 18.0187L3.29999 8.32031C3.14999 8.19375 3.06093 8.01094 3.05624 7.81406L2.88749 2.73281C2.8828 2.54531 2.95311 2.3625 3.07968 2.22656C3.21093 2.09062 3.39374 2.01562 3.57655 2.01562H3.59999L8.68124 2.18437C8.87343 2.18906 9.06093 2.27812 9.18749 2.42812L18.8906 13.5609C19.0547 13.7484 19.0406 14.025 18.8672 14.1984L15.0703 17.9953C14.9812 18.0891 14.8594 18.1359 14.7422 18.1359Z" fill="black"/>
<path d="M3.5906 2.4844L8.67185 2.65315C8.73748 2.65315 8.79373 2.68596 8.83591 2.73284L18.5344 13.8657L14.7375 17.6625L3.60466 7.96409C3.55779 7.9219 3.52498 7.86096 3.52498 7.80002L3.35623 2.71878C3.35154 2.58753 3.45935 2.47971 3.5906 2.4844Z" fill="url(#paint8_linear_115_1588)"/>
<path d="M3.60938 7.96411L14.7422 17.6625L16.6406 15.7641L3.42188 2.55005C3.37969 2.59224 3.35157 2.65317 3.35625 2.71411L3.525 7.80005C3.52969 7.86567 3.55782 7.92661 3.60938 7.96411Z" fill="url(#paint9_linear_115_1588)"/>
<path d="M19.5094 20.7C19.3875 20.7 19.2656 20.6532 19.1766 20.5641L16.4672 17.8547C16.2844 17.6719 16.2844 17.3766 16.4672 17.1938L18.0609 15.6C18.1547 15.5063 18.2719 15.4641 18.3938 15.4641C18.5156 15.4641 18.6328 15.511 18.7266 15.6L21.4359 18.3094C21.525 18.3985 21.5719 18.5157 21.5719 18.6422C21.5719 18.7688 21.525 18.886 21.4359 18.975L19.8422 20.5688C19.7531 20.6485 19.6359 20.7 19.5094 20.7Z" fill="black"/>
<path d="M21.1031 18.6375L19.5094 20.2313L16.8047 17.5219L18.3937 15.9329L21.1031 18.6375Z" fill="url(#paint10_linear_115_1588)"/>
<path d="M20.3063 19.4344L19.5094 20.2313L16.8047 17.5219L17.6016 16.7297L20.3063 19.4344Z" fill="url(#paint11_linear_115_1588)"/>
<path d="M20.6625 21.9844C20.0765 21.9844 19.5234 21.7547 19.1109 21.3422C18.2531 20.4844 18.2531 19.0922 19.1109 18.2391C19.5234 17.8266 20.0765 17.5969 20.6625 17.5969C21.2484 17.5969 21.8015 17.8266 22.214 18.2391C22.6265 18.6516 22.8562 19.2047 22.8562 19.7907C22.8562 20.3766 22.6265 20.9297 22.214 21.3422C21.8015 21.7547 21.2484 21.9844 20.6625 21.9844Z" fill="black"/>
<path d="M20.6625 21.5157C21.6152 21.5157 22.3875 20.7434 22.3875 19.7907C22.3875 18.838 21.6152 18.0657 20.6625 18.0657C19.7098 18.0657 18.9375 18.838 18.9375 19.7907C18.9375 20.7434 19.7098 21.5157 20.6625 21.5157Z" fill="url(#paint12_linear_115_1588)"/>
<path d="M21.8812 21.0093C21.2062 21.6843 20.1141 21.6843 19.4391 21.0093C18.7641 20.3343 18.7641 19.2421 19.4391 18.5671L21.8812 21.0093Z" fill="url(#paint13_linear_115_1588)"/>
<path d="M15.525 21.4641C14.7469 21.4641 14.0109 21.1594 13.4625 20.611L12.7547 19.9032C12.2203 19.3688 12.2203 18.5016 12.7547 17.9672L18.839 11.8829C19.0969 11.625 19.4437 11.4797 19.8094 11.4797C20.175 11.4797 20.5172 11.6204 20.7797 11.8829L21.4875 12.5907C22.0406 13.1438 22.3406 13.875 22.3406 14.6532C22.3406 15.4313 22.0359 16.1672 21.4875 16.7157C21.3984 16.8047 21.2812 16.8516 21.1547 16.8516C21.0328 16.8516 20.9109 16.8047 20.8219 16.7157L19.8047 15.7032L16.575 18.9329L17.5875 19.9454C17.6765 20.0344 17.7234 20.1516 17.7234 20.2782C17.7234 20.4047 17.6765 20.5219 17.5875 20.611C17.039 21.1594 16.3031 21.4641 15.525 21.4641Z" fill="black"/>
<path d="M13.0875 18.2953C12.7359 18.6468 12.7359 19.2187 13.0875 19.5703L13.7953 20.2781C14.7516 21.2343 16.3031 21.2343 17.2594 20.2781L16.2328 19.2515C16.0547 19.0734 16.0547 18.7921 16.2328 18.614L19.4859 15.3609C19.6641 15.1828 19.9453 15.1828 20.1234 15.3609L21.15 16.3875C22.1062 15.4312 22.1062 13.8796 21.15 12.9234L20.4422 12.2156C20.0906 11.864 19.5187 11.864 19.1672 12.2156L13.0875 18.2953Z" fill="url(#paint14_linear_115_1588)"/>
<path d="M17.8594 16.9875L16.2328 18.6141C16.0547 18.7922 16.0547 19.0735 16.2328 19.2516L17.2594 20.2782C16.3031 21.2344 14.7516 21.2344 13.7953 20.2782L13.0875 19.5704C12.7359 19.2188 12.7359 18.6469 13.0875 18.2954L16.1297 15.2532L17.8594 16.9875Z" fill="url(#paint15_linear_115_1588)"/>
<defs>
<linearGradient id="paint0_linear_115_1588" x1="13.0524" y1="17.6649" x2="13.0524" y2="2.48426" gradientUnits="userSpaceOnUse">
<stop stop-color="#B3E6FF"/>
<stop offset="1" stop-color="#DDF4FF"/>
</linearGradient>
<linearGradient id="paint1_linear_115_1588" x1="14.0021" y1="17.6649" x2="14.0021" y2="2.55052" gradientUnits="userSpaceOnUse">
<stop stop-color="#41BEEF"/>
<stop offset="1" stop-color="#A3D9EF"/>
</linearGradient>
<linearGradient id="paint2_linear_115_1588" x1="5.04654" y1="20.2304" x2="5.04654" y2="15.9314" gradientUnits="userSpaceOnUse">
<stop stop-color="#A80045"/>
<stop offset="1" stop-color="#FF0069"/>
</linearGradient>
<linearGradient id="paint3_linear_115_1588" x1="5.44451" y1="20.23" x2="5.44451" y2="16.7272" gradientUnits="userSpaceOnUse">
<stop stop-color="#990045"/>
<stop offset="1" stop-color="#C20058"/>
</linearGradient>
<linearGradient id="paint4_linear_115_1588" x1="3.33725" y1="21.5157" x2="3.33725" y2="18.0638" gradientUnits="userSpaceOnUse">
<stop stop-color="#FF8C00"/>
<stop offset="1" stop-color="#FFE347"/>
</linearGradient>
<linearGradient id="paint5_linear_115_1588" x1="3.59053" y1="21.5158" x2="3.59053" y2="18.569" gradientUnits="userSpaceOnUse">
<stop stop-color="#FF6A00"/>
<stop offset="1" stop-color="#FF9700"/>
</linearGradient>
<linearGradient id="paint6_linear_115_1588" x1="6.6562" y1="20.9928" x2="6.6562" y2="11.9486" gradientUnits="userSpaceOnUse">
<stop stop-color="#FF8C00"/>
<stop offset="1" stop-color="#FFE347"/>
</linearGradient>
<linearGradient id="paint7_linear_115_1588" x1="8.65936" y1="20.9933" x2="8.65936" y2="15.2541" gradientUnits="userSpaceOnUse">
<stop stop-color="#FF6A00"/>
<stop offset="1" stop-color="#FF9700"/>
</linearGradient>
<linearGradient id="paint8_linear_115_1588" x1="10.9474" y1="17.6649" x2="10.9474" y2="2.48426" gradientUnits="userSpaceOnUse">
<stop stop-color="#B3E6FF"/>
<stop offset="1" stop-color="#DDF4FF"/>
</linearGradient>
<linearGradient id="paint9_linear_115_1588" x1="9.99792" y1="17.6649" x2="9.99792" y2="2.55052" gradientUnits="userSpaceOnUse">
<stop stop-color="#A3D9EF"/>
<stop offset="1" stop-color="#41BEEF"/>
</linearGradient>
<linearGradient id="paint10_linear_115_1588" x1="18.9531" y1="20.2298" x2="18.9531" y2="15.9308" gradientUnits="userSpaceOnUse">
<stop stop-color="#0069CC"/>
<stop offset="1" stop-color="#0090F2"/>
</linearGradient>
<linearGradient id="paint11_linear_115_1588" x1="18.5551" y1="20.2303" x2="18.5551" y2="16.7275" gradientUnits="userSpaceOnUse">
<stop stop-color="#0044BA"/>
<stop offset="1" stop-color="#0077E3"/>
</linearGradient>
<linearGradient id="paint12_linear_115_1588" x1="20.6623" y1="21.5157" x2="20.6623" y2="18.0638" gradientUnits="userSpaceOnUse">
<stop stop-color="#FF8C00"/>
<stop offset="1" stop-color="#FFE347"/>
</linearGradient>
<linearGradient id="paint13_linear_115_1588" x1="20.4095" y1="21.5158" x2="20.4095" y2="18.569" gradientUnits="userSpaceOnUse">
<stop stop-color="#FF6A00"/>
<stop offset="1" stop-color="#FF9700"/>
</linearGradient>
<linearGradient id="paint14_linear_115_1588" x1="17.3438" y1="20.9928" x2="17.3438" y2="11.9486" gradientUnits="userSpaceOnUse">
<stop stop-color="#FF8C00"/>
<stop offset="1" stop-color="#FFE347"/>
</linearGradient>
<linearGradient id="paint15_linear_115_1588" x1="15.3402" y1="20.9933" x2="15.3402" y2="15.2541" gradientUnits="userSpaceOnUse">
<stop stop-color="#FF6A00"/>
<stop offset="1" stop-color="#FF9700"/>
</linearGradient>
</defs>
</svg>
