<svg width="19" height="18" viewBox="0 0 19 18" fill="none" xmlns="http://www.w3.org/2000/svg">
<path d="M11.5968 8.98071H6.44285C6.08723 8.98071 5.79861 9.26933 5.79861 9.62495V11.4056C5.79861 12.142 6.20771 12.8043 6.86676 13.1341L7.08709 13.2443V14.7789C7.08709 15.1345 7.37571 15.4231 7.73133 15.4231H10.3083C10.6639 15.4231 10.9525 15.1345 10.9525 14.7789V13.2443L11.1728 13.1341C11.8319 12.8043 12.241 12.142 12.241 11.4056V9.62495C12.241 9.26933 11.9524 8.98071 11.5968 8.98071Z" fill="#F4A135"/>
<path d="M17.9032 3.11495L17.259 4.40342C17.0393 4.84279 16.598 5.1153 16.1064 5.1153H1.93383C1.44228 5.1153 1.00098 4.84215 0.781293 4.40342L0.137055 3.11495C-0.063947 2.7123 -0.0426871 2.24394 0.193104 1.86126C0.429539 1.47858 0.839274 1.24988 1.2896 1.24988H16.7507C17.2003 1.24988 17.6101 1.47794 17.8465 1.86126C18.0829 2.24394 18.1042 2.7123 17.9032 3.11495ZM16.1064 5.75954H1.93383C1.48416 5.75954 1.07442 5.9876 0.837341 6.37092C0.600906 6.7536 0.580291 7.22196 0.781293 7.62461L1.42553 8.91308C1.64522 9.35245 2.08652 9.62497 2.57807 9.62497H15.4622C15.9537 9.62497 16.395 9.35181 16.6147 8.91308L17.259 7.62461C17.46 7.22196 17.4387 6.7536 17.2023 6.37092C16.9658 5.98825 16.5561 5.75954 16.1064 5.75954Z" fill="#F4A135"/>
<path d="M14.5944 3.6889L12.0387 0.484467C11.7926 0.176521 11.4254 0 11.0318 0H6.93376C6.53949 0 6.17163 0.176521 5.92682 0.485111L3.37113 3.68955C3.12567 3.99814 3.03548 4.39563 3.1231 4.77895L4.03534 8.77323C4.12295 9.15848 4.37678 9.47738 4.7324 9.6481L8.42517 11.4268C8.60234 11.5119 8.79303 11.555 8.98373 11.555C9.17442 11.555 9.36512 11.5125 9.54293 11.4268L13.2344 9.64875C13.59 9.47802 13.8439 9.15977 13.9321 8.77452L14.8437 4.77895C14.9313 4.39499 14.8405 3.99814 14.5944 3.6889Z" fill="#FFD15C"/>
<path d="M12.2687 4.34856C12.1675 4.03804 11.9034 3.81642 11.5813 3.77003L10.3366 3.589L9.78 2.46159C9.63505 2.16846 9.34257 1.98743 9.01594 1.98743C8.68931 1.98743 8.39683 2.16975 8.25252 2.46223L7.6959 3.58965L6.45252 3.77068C6.12975 3.81706 5.86562 4.03932 5.76447 4.3492C5.66333 4.65972 5.74514 4.99473 5.97965 5.22408L6.87965 6.10153L6.66705 7.34104C6.61229 7.66316 6.74242 7.98206 7.00592 8.1734C7.26941 8.36538 7.61408 8.3905 7.90334 8.23846L9.01594 7.65285L10.1298 8.23846C10.2555 8.30418 10.3907 8.33639 10.526 8.33639C10.7019 8.33639 10.8771 8.28098 11.0266 8.17211C11.2907 7.98013 11.4196 7.66058 11.3648 7.33975L11.1522 6.10088L12.0529 5.22279C12.2867 4.99473 12.3692 4.65908 12.2674 4.34856H12.2687Z" fill="#F4A135"/>
<path d="M12.8852 14.1345H5.15438C4.44277 14.1345 3.8659 14.7114 3.8659 15.423V16.7115C3.8659 17.4231 4.44277 17.9999 5.15438 17.9999H12.8852C13.5968 17.9999 14.1737 17.4231 14.1737 16.7115V15.423C14.1737 14.7114 13.5968 14.1345 12.8852 14.1345Z" fill="#494C54"/>
</svg>
