<svg width="10" height="10" viewBox="0 0 10 10" fill="none" xmlns="http://www.w3.org/2000/svg">
<path d="M5.67082 3.74586L6.25457 4.84878L6.83832 3.74586L6.25457 2.64294L5.67082 3.74586Z" fill="#E88E1C"/>
<path d="M6.43 0C4.46125 0 2.85958 1.60167 2.85958 3.57042C2.85958 3.95333 2.91833 4.32417 3.03417 4.67542L0.0916667 7.6175C0.0329167 7.67625 0 7.75542 0 7.83833V9.6875C0 9.86 0.14 10 0.3125 10H1.94958C2.12208 10 2.26208 9.86 2.26208 9.6875V9.17708H2.76417C2.93667 9.17708 3.07667 9.03708 3.07667 8.86458V8.36292H3.57875C3.66167 8.36292 3.74125 8.33 3.79958 8.27125L5.16208 6.90833C5.56208 7.0625 5.9875 7.14083 6.42958 7.14083C8.39833 7.14083 10 5.53917 10 3.57042C10 1.60167 8.39875 0 6.43 0ZM7.46833 3.89208L6.53083 5.66292C6.47667 5.76542 6.37042 5.82917 6.25458 5.82917C6.13875 5.82917 6.0325 5.76542 5.97833 5.66292L5.04083 3.89208C4.9925 3.80083 4.9925 3.69125 5.04083 3.6L5.97833 1.82917C6.08667 1.62417 6.42208 1.62417 6.53042 1.82917L7.46792 3.6C7.51667 3.69083 7.51667 3.80083 7.46833 3.89208Z" fill="#E88E1C"/>
</svg>
