<svg width="13" height="13" viewBox="0 0 13 13" fill="none" xmlns="http://www.w3.org/2000/svg">
<g clip-path="url(#clip0_115_8790)">
<path d="M11.8199 6.51202C11.8199 6.627 11.7509 6.73335 11.6446 6.77647C11.5354 6.82244 11.4147 6.79658 11.3313 6.71898C9.82819 5.2618 8.23593 5.01175 6.7385 4.96288C5.26121 5.01175 3.66608 5.25893 2.16291 6.71898C2.07954 6.79945 1.95595 6.82244 1.84962 6.77647C1.74327 6.73335 1.67432 6.62702 1.67432 6.51202C1.67432 3.74712 6.38787 0.654582 6.58905 0.522373C6.63505 0.493618 6.68966 0.476379 6.74714 0.476379H6.74999C6.80461 0.476379 6.85922 0.493618 6.90521 0.522373C7.1064 0.654558 11.8199 3.74712 11.8199 6.51202Z" fill="url(#paint0_linear_115_8790)"/>
<path d="M1.85072 12.5252C1.95654 12.5698 2.07974 12.5471 2.16282 12.4668C3.66696 11.0086 5.26064 10.7609 6.73924 10.7103C8.23579 10.7609 9.82808 11.0087 11.3322 12.4668C11.4139 12.546 11.5363 12.5708 11.6443 12.5252C11.7507 12.4801 11.8197 12.376 11.8197 12.2605C11.8197 9.49513 7.10636 6.40154 6.90568 6.27131C6.85909 6.24098 6.80464 6.22485 6.74906 6.22485H6.74597C6.6904 6.22485 6.63595 6.24098 6.58935 6.27131C6.38867 6.40156 1.67529 9.49516 1.67529 12.2605C1.67529 12.376 1.74434 12.4801 1.85072 12.5252ZM6.74766 6.8578C7.4676 7.35136 10.4705 9.50612 11.1206 11.5244C9.64845 10.3935 8.10276 10.1813 6.73926 10.1358C5.39174 10.1813 3.84661 10.3935 2.37475 11.5243C3.02506 9.50708 6.02802 7.35136 6.74766 6.8578Z" fill="url(#paint1_linear_115_8790)"/>
</g>
<defs>
<linearGradient id="paint0_linear_115_8790" x1="6.74712" y1="0.476379" x2="6.74712" y2="6.7999" gradientUnits="userSpaceOnUse">
<stop stop-color="#FF6600"/>
<stop offset="1" stop-color="#DE4900"/>
</linearGradient>
<linearGradient id="paint1_linear_115_8790" x1="6.74752" y1="6.22485" x2="6.74752" y2="12.5479" gradientUnits="userSpaceOnUse">
<stop stop-color="#FF6600"/>
<stop offset="1" stop-color="#DE4900"/>
</linearGradient>
<clipPath id="clip0_115_8790">
<rect width="12.3614" height="12.3614" fill="white" transform="translate(0.566406 0.331421)"/>
</clipPath>
</defs>
</svg>
