<svg width="19" height="20" viewBox="0 0 19 20" fill="none" xmlns="http://www.w3.org/2000/svg">
<path d="M9.2306 5.32344C9.10905 5.32344 8.99461 5.26797 8.91963 5.17344C8.84465 5.07852 8.81821 4.95508 8.8478 4.83828C8.87464 4.73164 9.52106 2.21445 10.8376 1.33203C11.3017 1.02109 11.763 0.863281 12.2089 0.863281C12.6549 0.863281 13.0752 1.02852 13.3786 1.32891C13.6253 1.57305 13.8755 2.08008 13.7685 2.70391C13.6048 3.65742 12.7141 4.52539 11.1213 5.28476C11.068 5.31016 11.0092 5.32344 10.95 5.32344H9.2306Z" fill="black"/>
<path d="M9.23059 4.93279H10.95C14.0613 3.44997 13.4627 1.96443 13.0996 1.60505C12.7287 1.23786 11.999 1.02536 11.0589 1.65544C9.85215 2.46443 9.23059 4.93279 9.23059 4.93279Z" fill="url(#paint0_radial_115_8685)"/>
<path d="M9.73572 4.5574C10.0017 3.74412 10.5475 2.45154 11.2716 1.96638C11.6051 1.74294 11.9208 1.62927 12.2089 1.62927C12.538 1.62927 12.7401 1.78044 12.8313 1.87068C12.9185 1.95701 13.0672 2.2156 13.0053 2.57576C12.8916 3.23748 12.132 3.93943 10.8624 4.5574H9.73572Z" fill="url(#paint1_linear_115_8685)"/>
<path d="M7.51117 5.32344C7.45197 5.32344 7.39357 5.31016 7.3399 5.28476C5.74714 4.52578 4.85644 3.65742 4.69267 2.70391C4.58533 2.07969 4.83553 1.57305 5.08257 1.32891C5.38605 1.02852 5.8012 0.863281 6.25228 0.863281C6.70335 0.863281 7.15955 1.02109 7.62364 1.33203C8.94015 2.21445 9.58657 4.73164 9.6134 4.83828C9.64261 4.95508 9.61617 5.07852 9.54158 5.17344C9.4666 5.26797 9.35215 5.32344 9.2306 5.32344H7.51117Z" fill="black"/>
<path d="M9.23058 4.9328H7.51115C4.39983 3.44998 4.99849 1.96444 5.36156 1.60506C5.72463 1.24569 6.4622 1.02537 7.40223 1.65545C8.60903 2.46444 9.23058 4.9328 9.23058 4.9328Z" fill="url(#paint2_radial_115_8685)"/>
<path d="M8.72542 4.5574C8.45943 3.74412 7.91365 2.45154 7.18949 1.96638C6.85602 1.74294 6.54031 1.62927 6.25222 1.62927C5.92309 1.62927 5.72104 1.78044 5.62988 1.87068C5.54266 1.95701 5.39388 2.2156 5.45584 2.57576C5.5695 3.23748 6.32918 3.93943 7.59873 4.5574H8.72542Z" fill="url(#paint3_linear_115_8685)"/>
<path d="M8.4555 5.32344C8.34105 5.32344 8.23253 5.27422 8.15755 5.18906C7.07821 3.95859 6.22303 2.27734 6.12477 1.19219C6.08531 0.759375 6.24434 0.4875 6.38484 0.335547C6.58452 0.119141 6.88011 0 7.21673 0C7.40497 0 7.59637 0.0363281 7.78659 0.107422C8.31067 0.303906 8.80988 0.407812 9.23057 0.407812C9.65125 0.407812 10.1509 0.303906 10.6749 0.107422C10.8648 0.0359375 11.0566 0 11.2448 0C11.5814 0 11.877 0.119141 12.0767 0.335547C12.2168 0.4875 12.3758 0.759375 12.3368 1.19219C12.2381 2.27773 11.3833 3.95859 10.304 5.18906C10.229 5.27461 10.1205 5.32344 10.006 5.32344H8.45589H8.4555Z" fill="black"/>
<path d="M10.8147 0.472657C10.2314 0.691407 9.69432 0.798439 9.23062 0.798439C8.76692 0.798439 8.22982 0.691407 7.64654 0.472657C7.06327 0.253907 6.45513 0.469532 6.51748 1.15703C6.60509 2.12383 7.40187 3.73164 8.45555 4.93281H10.0057C11.0594 3.73164 11.8557 2.12383 11.9437 1.15703C12.0061 0.469532 11.398 0.253907 10.8147 0.472657Z" fill="url(#paint4_radial_115_8685)"/>
<path d="M11.9436 1.15704C11.8556 2.12384 11.0593 3.73165 10.006 4.93282H8.45584C8.01345 4.42813 7.61605 3.85157 7.29797 3.28126C7.3331 3.31407 8.13066 3.83673 8.90494 3.83673C9.67922 3.83673 10.1184 3.62892 10.4492 3.30392C10.8245 2.93477 11.3241 2.01954 11.4417 1.36681C11.5589 0.714461 11.1757 0.503133 10.8225 0.46993C11.4034 0.255477 12.006 0.472274 11.9436 1.15704Z" fill="url(#paint5_linear_115_8685)"/>
<path d="M6.00726 5.65154C5.47607 5.65154 5.04395 5.2238 5.04395 4.69802C5.04395 4.17224 5.47607 3.74451 6.00726 3.74451H12.4541C12.9852 3.74451 13.4174 4.17224 13.4174 4.69802C13.4174 5.2238 12.9852 5.65154 12.4541 5.65154H6.00726Z" fill="black"/>
<path d="M12.4545 4.13477H6.00727C5.6932 4.13477 5.4386 4.38678 5.4386 4.69766V4.69805C5.4386 5.00892 5.6932 5.26094 6.00727 5.26094H12.4545C12.7685 5.26094 13.0231 5.00892 13.0231 4.69805V4.69766C13.0231 4.38678 12.7685 4.13477 12.4545 4.13477Z" fill="url(#paint6_linear_115_8685)"/>
<path d="M13.0231 4.69761C13.0231 4.85347 12.9596 4.9937 12.8562 5.09605C12.7528 5.19839 12.6111 5.26089 12.454 5.26089H6.00764C5.69311 5.26089 5.43896 5.00894 5.43896 4.698C5.43896 4.63237 5.45041 4.56909 5.47172 4.5105C5.54946 4.72925 5.75981 4.88589 6.00803 4.88589H12.4548C12.6119 4.88589 12.754 4.823 12.857 4.72104C12.9166 4.66206 12.9627 4.59058 12.9911 4.5105C13.0125 4.56948 13.0239 4.63237 13.0239 4.698L13.0231 4.69761Z" fill="url(#paint7_linear_115_8685)"/>
<path d="M9.74339 17.4363C6.96909 17.4363 4.54364 17.3906 2.96154 16.8312C1.29104 16.2406 0.512817 15.0734 0.512817 13.1578C0.512817 10.8652 0.921662 8.8371 1.7283 7.13046C2.39958 5.71014 3.34474 4.50858 4.53851 3.55975C6.70468 1.8371 9.03028 1.46014 9.74378 1.46014C10.4573 1.46014 12.7829 1.83749 14.9491 3.55975C16.1428 4.50897 17.0884 5.71014 17.7593 7.13046C18.5655 8.8371 18.9748 10.8648 18.9748 13.1578C18.9748 15.0734 18.1965 16.2406 16.526 16.8312C14.9439 17.3906 12.5185 17.4363 9.74418 17.4363H9.74339Z" fill="black"/>
<path d="M9.74328 1.85095C8.30364 1.85095 0.907349 3.45134 0.907349 13.158C0.907349 16.7892 3.79373 17.0459 9.74328 17.0459C15.6928 17.0459 18.5792 16.7892 18.5792 13.158C18.5792 3.45134 11.1829 1.85095 9.74328 1.85095Z" fill="url(#paint8_radial_115_8685)"/>
<path d="M18.5791 13.1576C18.5791 16.7893 15.6928 17.0455 9.74321 17.0455C4.36075 17.0455 1.48582 16.8358 0.986206 14.1069C2.89625 15.6936 7.52495 15.6936 9.74321 15.6936C11.9615 15.6936 16.8522 14.4467 15.9264 8.90413C15.4422 6.00452 13.3605 4.43264 11.448 3.76194C9.78228 3.17756 6.95036 3.13889 5.2771 3.49827C7.15952 2.18889 9.0814 1.85022 9.74321 1.85022C11.1832 1.85022 18.5791 3.45061 18.5791 13.1573V13.1576Z" fill="url(#paint9_linear_115_8685)"/>
<path d="M9.57163 6.02393C9.06373 6.02393 8.64186 5.63057 8.61069 5.12861C8.47611 2.95752 10.2796 1.84424 10.3562 1.79814C10.5073 1.70713 10.6806 1.65869 10.857 1.65869C11.196 1.65869 11.5038 1.82979 11.6802 2.11611C11.9552 2.5626 11.8128 3.14971 11.3633 3.42393C11.3297 3.44502 10.4706 3.99229 10.5341 5.01143C10.5499 5.26572 10.4647 5.51064 10.2942 5.70166C10.1237 5.89268 9.88852 6.00635 9.63161 6.02197C9.62964 6.02197 9.62806 6.02197 9.62609 6.02197C9.60872 6.02314 9.59018 6.02354 9.57202 6.02354L9.57163 6.02393Z" fill="#DE4900"/>
<path d="M12.8352 6.3265C12.6971 6.3265 12.5629 6.2976 12.4362 6.24056C10.1217 5.19759 9.95121 2.7683 9.94529 2.66556C9.91411 2.14174 10.3186 1.69056 10.847 1.65775H10.8522C10.8707 1.65658 10.8893 1.65619 10.9074 1.65619C11.4145 1.65619 11.8368 2.04877 11.8684 2.54994C11.8723 2.60385 11.9808 3.93978 13.2346 4.50502C13.469 4.61049 13.6474 4.79994 13.7378 5.03861C13.8281 5.27728 13.8191 5.53627 13.7121 5.76791C13.5633 6.09134 13.2484 6.30463 12.8897 6.32494C12.8715 6.32611 12.8534 6.3265 12.8348 6.3265H12.8352Z" fill="#DE4900"/>
<path d="M9.57163 5.64813C9.06373 5.64813 8.64186 5.25477 8.61069 4.75282C8.47611 2.58173 10.2796 1.46844 10.3562 1.42235C10.5073 1.33134 10.6806 1.2829 10.857 1.2829C11.196 1.2829 11.5038 1.45399 11.6802 1.74032C11.9552 2.1868 11.8128 2.77391 11.3633 3.04813C11.3297 3.06923 10.4706 3.61649 10.5341 4.63563C10.5499 4.88993 10.4647 5.13485 10.2942 5.32587C10.1237 5.51688 9.88852 5.63055 9.63161 5.64618C9.62964 5.64618 9.62806 5.64618 9.62609 5.64618C9.60872 5.64735 9.59018 5.64774 9.57202 5.64774L9.57163 5.64813Z" fill="black"/>
<path d="M9.60435 5.25621C9.2918 5.27379 9.02345 5.03824 9.00411 4.72848C8.88374 2.7902 10.4927 1.79684 10.561 1.75543C10.8293 1.59371 11.1794 1.6777 11.3427 1.94332C11.5057 2.20817 11.4217 2.55309 11.1557 2.71559C11.1056 2.74684 10.0621 3.41246 10.1395 4.65973C10.1588 4.97028 9.92006 5.23707 9.60672 5.25621H9.60435Z" fill="url(#paint10_linear_115_8685)"/>
<path d="M11.3455 1.94789C11.2389 1.94438 11.1304 1.97094 11.0325 2.02993C10.9642 2.07133 9.35569 3.06469 9.47566 5.00297C9.48158 5.09594 9.50999 5.18227 9.55538 5.25727C9.26453 5.24907 9.02262 5.02211 9.00407 4.72875C8.8841 2.79047 10.4926 1.79711 10.5609 1.75571C10.8293 1.59399 11.1793 1.67836 11.3427 1.9436C11.3435 1.94516 11.3443 1.94633 11.3451 1.94789H11.3455Z" fill="url(#paint11_linear_115_8685)"/>
<path d="M12.8352 5.95107C12.6971 5.95107 12.5629 5.92217 12.4362 5.86514C10.1217 4.82217 9.95121 2.39287 9.94529 2.29014C9.91411 1.76631 10.3186 1.31514 10.847 1.28232H10.8522C10.8707 1.28115 10.8893 1.28076 10.9074 1.28076C11.4145 1.28076 11.8368 1.67334 11.8684 2.17451C11.8723 2.22842 11.9808 3.56436 13.2346 4.12959C13.469 4.23506 13.6474 4.42451 13.7378 4.66318C13.8281 4.90186 13.8191 5.16084 13.7121 5.39248C13.5633 5.71592 13.2484 5.9292 12.8897 5.94951C12.8715 5.95068 12.8534 5.95107 12.8348 5.95107H12.8352Z" fill="black"/>
<path d="M12.8676 5.55944C12.7784 5.56452 12.6868 5.5489 12.6 5.50944C10.499 4.56257 10.3447 2.36022 10.3391 2.26687C10.3206 1.95632 10.5601 1.68991 10.8735 1.67194H10.8743C11.1868 1.65437 11.4548 1.88991 11.4745 2.1989C11.4796 2.27233 11.6079 3.82546 13.0712 4.48483C13.3573 4.61374 13.4832 4.94772 13.3534 5.23054C13.2626 5.42741 13.0716 5.54812 12.8676 5.55944Z" fill="url(#paint12_linear_115_8685)"/>
<path d="M13.3885 5.12963C13.3802 5.164 13.3684 5.19759 13.3534 5.2308C13.263 5.42767 13.0716 5.54838 12.8676 5.5597C12.7788 5.56478 12.6868 5.54877 12.6 5.5097C10.4989 4.56283 10.345 2.36049 10.3391 2.26713C10.3241 2.01322 10.4816 1.78861 10.7113 1.70502C10.6978 1.75814 10.6927 1.81361 10.6963 1.87103C10.7022 1.96439 10.8557 4.16674 12.9571 5.11361C13.044 5.15267 13.1359 5.16869 13.2247 5.16361C13.2811 5.16049 13.3364 5.14916 13.3889 5.12963H13.3885Z" fill="url(#paint13_linear_115_8685)"/>
<path d="M9.50687 14.2473C9.28903 14.2473 9.11223 14.0723 9.11223 13.8567V13.402C8.60907 13.295 8.2018 13.0766 7.89872 12.7505C7.525 12.3489 7.33557 11.8219 7.33557 11.1852C7.33557 10.9696 7.51237 10.7946 7.73021 10.7946H8.97174C8.91886 10.77 8.86716 10.745 8.81625 10.7204C8.56684 10.5985 8.34742 10.4536 8.16352 10.2899C7.96581 10.1137 7.8115 9.90593 7.70535 9.67234C7.5984 9.43796 7.54433 9.15828 7.54433 8.84109C7.54433 8.29343 7.73613 7.83289 8.11498 7.47312C8.40228 7.20007 8.76337 7.0157 9.19155 6.92312V6.43445C9.19155 6.21882 9.36835 6.04382 9.58619 6.04382H10.2125C10.4303 6.04382 10.6071 6.21882 10.6071 6.43445V6.9575C11.0294 7.07546 11.3778 7.29343 11.6466 7.6075C11.9816 7.99968 12.1517 8.49617 12.1517 9.08249C12.1517 9.29812 11.9749 9.47312 11.7571 9.47312H10.5759C10.6663 9.51609 10.7547 9.55945 10.8403 9.60281C11.0862 9.7282 11.3033 9.87429 11.4852 10.036C11.6813 10.2106 11.8372 10.4177 11.9485 10.6509C12.0625 10.8899 12.1202 11.1731 12.1202 11.4923C12.1202 12.0423 11.9374 12.5016 11.5763 12.8571C11.3009 13.1286 10.9493 13.3122 10.5282 13.4052V13.8555C10.5282 14.0712 10.3514 14.2462 10.1336 14.2462H9.50726L9.50687 14.2473ZM9.39479 10.9817C9.43149 11.0411 9.45241 11.1106 9.45241 11.1852C9.45241 11.3825 9.48871 11.529 9.55738 11.6091C9.59527 11.6532 9.6592 11.7032 9.82218 11.7032C9.92242 11.7032 9.94926 11.6755 9.95952 11.6649C9.98833 11.6352 10.0029 11.5802 10.0029 11.5009C10.0029 11.4266 9.99306 11.327 9.9457 11.2731C9.91808 11.2415 9.82495 11.1563 9.55501 11.0473C9.50095 11.0255 9.44767 11.0036 9.39518 10.9817H9.39479ZM9.81824 8.63132C9.73655 8.63132 9.7176 8.65242 9.7105 8.66062C9.67104 8.70515 9.66512 8.79773 9.66512 8.84929C9.66512 8.98015 9.70616 9.02234 9.71997 9.0364C9.75786 9.07546 9.85178 9.15203 10.0669 9.24812C10.0436 9.19812 10.0302 9.14226 10.0302 9.08367C10.0302 8.90281 10.0002 8.76179 9.9461 8.6864C9.924 8.65554 9.89993 8.63171 9.81824 8.63171V8.63132Z" fill="black"/>
<path d="M10.3977 11.5009C10.3977 11.2954 10.3464 11.1341 10.2442 11.0173C10.1416 10.9001 9.96163 10.7899 9.70432 10.6856C9.44702 10.5817 9.20905 10.4762 8.99121 10.3696C8.77298 10.263 8.58553 10.1395 8.42767 9.99929C8.27021 9.85906 8.14906 9.69656 8.065 9.51179C7.98094 9.32703 7.93911 9.10359 7.93911 8.84109C7.93911 8.40164 8.08868 8.03953 8.38821 7.75476C8.68774 7.47 9.08672 7.30437 9.58593 7.25749V6.43445H10.2122V7.27312C10.6929 7.34343 11.0706 7.53913 11.3448 7.86023C11.6191 8.18132 11.7564 8.58875 11.7564 9.08289H10.4245C10.4245 8.81257 10.3721 8.60437 10.2671 8.45906C10.1621 8.31335 10.0121 8.2407 9.81798 8.2407C9.64473 8.2407 9.51016 8.2946 9.41427 8.40242C9.31837 8.51023 9.27062 8.65906 9.27062 8.8489C9.27062 9.03875 9.32587 9.19421 9.43597 9.3071C9.54647 9.42039 9.72366 9.5282 9.96794 9.63093C10.2122 9.73367 10.4427 9.84031 10.6593 9.95085C10.876 10.0614 11.0631 10.1868 11.2209 10.327C11.3784 10.4673 11.5019 10.6313 11.5915 10.8184C11.6807 11.0055 11.7253 11.2305 11.7253 11.493C11.7253 11.9376 11.5828 12.3005 11.2979 12.5813C11.0129 12.8622 10.6246 13.0259 10.1337 13.0727V13.8567H9.5074V13.0688C8.93478 13.0091 8.49555 12.8149 8.18931 12.4856C7.88347 12.1567 7.73035 11.7231 7.73035 11.1848H9.0583C9.0583 11.4813 9.1246 11.7067 9.2572 11.8614C9.3898 12.0161 9.57843 12.0934 9.82272 12.0934C10.0015 12.0934 10.142 12.0407 10.2442 11.9356C10.3468 11.8302 10.3977 11.6852 10.3977 11.5009Z" fill="#FFB806"/>
<path d="M10.6597 9.95049C10.8693 10.0575 11.0516 10.1786 11.2059 10.3138C10.73 10.4673 10.2525 10.6005 9.77691 10.7161C9.75324 10.706 9.72916 10.6954 9.7043 10.6856C9.4466 10.5813 9.20903 10.4763 8.99119 10.3696C8.77335 10.263 8.58511 10.1396 8.42765 9.99932C8.26979 9.85869 8.14943 9.69619 8.06537 9.51182C7.98131 9.32705 7.93909 9.10361 7.93909 8.84072C7.93909 8.40166 8.08905 8.03955 8.38858 7.75479C8.68811 7.47002 9.08748 7.30439 9.5863 7.25713V6.43408H10.2126V7.27275C10.6933 7.34307 11.0705 7.53877 11.3452 7.85986C11.6199 8.18096 11.7572 8.58877 11.7572 9.08252H10.4257C10.4257 8.81221 10.3732 8.60439 10.2678 8.45869C10.1625 8.31299 10.0129 8.24033 9.81875 8.24033C9.64511 8.24033 9.51093 8.29424 9.41464 8.40205C9.31874 8.50986 9.27099 8.65908 9.27099 8.84854C9.27099 9.03799 9.32624 9.19346 9.43634 9.30674C9.54645 9.42002 9.72403 9.52783 9.96831 9.63018C10.2126 9.73291 10.4431 9.83955 10.6597 9.9501V9.95049Z" fill="#FFDB08"/>
<defs>
<radialGradient id="paint0_radial_115_8685" cx="0" cy="0" r="1" gradientUnits="userSpaceOnUse" gradientTransform="translate(11.3151 3.09333) scale(1.97477 1.95469)">
<stop offset="0.5" stop-color="#FF6600"/>
<stop offset="1" stop-color="#FFAA00"/>
</radialGradient>
<linearGradient id="paint1_linear_115_8685" x1="9.86713" y1="4.68748" x2="12.7424" y2="1.7827" gradientUnits="userSpaceOnUse">
<stop offset="0.3" stop-color="#D43C00"/>
<stop offset="1" stop-color="#FF6600"/>
</linearGradient>
<radialGradient id="paint2_radial_115_8685" cx="0" cy="0" r="1" gradientUnits="userSpaceOnUse" gradientTransform="translate(7.14611 3.09334) scale(1.97477 1.95469)">
<stop offset="0.5" stop-color="#FF6600"/>
<stop offset="1" stop-color="#FFAA00"/>
</radialGradient>
<linearGradient id="paint3_linear_115_8685" x1="5.44637" y1="2.15662" x2="8.93826" y2="4.19299" gradientUnits="userSpaceOnUse">
<stop stop-color="#FF6600"/>
<stop offset="0.7" stop-color="#D43C00"/>
</linearGradient>
<radialGradient id="paint4_radial_115_8685" cx="0" cy="0" r="1" gradientUnits="userSpaceOnUse" gradientTransform="translate(9.22509 0.800392) scale(4.16303 4.1207)">
<stop stop-color="#FFBF00"/>
<stop offset="0.7" stop-color="#FF7B00"/>
</radialGradient>
<linearGradient id="paint5_linear_115_8685" x1="8.13658" y1="4.6172" x2="11.9516" y2="0.762973" gradientUnits="userSpaceOnUse">
<stop stop-color="#EB5E00"/>
<stop offset="1" stop-color="#FF7700"/>
</linearGradient>
<linearGradient id="paint6_linear_115_8685" x1="7.21684" y1="2.7043" x2="11.2037" y2="6.73215" gradientUnits="userSpaceOnUse">
<stop stop-color="#FFDE06"/>
<stop offset="1" stop-color="#FF8F06"/>
</linearGradient>
<linearGradient id="paint7_linear_115_8685" x1="7.23654" y1="2.76284" x2="11.1844" y2="6.75084" gradientUnits="userSpaceOnUse">
<stop stop-color="#FFC117"/>
<stop offset="1" stop-color="#FF7E06"/>
</linearGradient>
<radialGradient id="paint8_radial_115_8685" cx="0" cy="0" r="1" gradientUnits="userSpaceOnUse" gradientTransform="translate(5.25981 5.48689) scale(15.1387 14.9848)">
<stop stop-color="#FFC940"/>
<stop offset="0.3" stop-color="#FF6A00"/>
<stop offset="1" stop-color="#C44400"/>
</radialGradient>
<linearGradient id="paint9_linear_115_8685" x1="3.60699" y1="5.15139" x2="15.854" y2="17.5238" gradientUnits="userSpaceOnUse">
<stop stop-color="#F76300"/>
<stop offset="1" stop-color="#BA3F00"/>
</linearGradient>
<linearGradient id="paint10_linear_115_8685" x1="10.2121" y1="5.25739" x2="10.2121" y2="1.6734" gradientUnits="userSpaceOnUse">
<stop stop-color="#FFC745"/>
<stop offset="0.71" stop-color="#FF7A03"/>
</linearGradient>
<linearGradient id="paint11_linear_115_8685" x1="10.1718" y1="5.25727" x2="10.1718" y2="1.67368" gradientUnits="userSpaceOnUse">
<stop stop-color="#FCAC00"/>
<stop offset="0.6" stop-color="#FF6A00"/>
</linearGradient>
<linearGradient id="paint12_linear_115_8685" x1="10.216" y1="2.12194" x2="13.3483" y2="5.28638" gradientUnits="userSpaceOnUse">
<stop offset="0.15" stop-color="#FF7700"/>
<stop offset="1" stop-color="#FFC745"/>
</linearGradient>
<linearGradient id="paint13_linear_115_8685" x1="10.0992" y1="2.23744" x2="13.2318" y2="5.40188" gradientUnits="userSpaceOnUse">
<stop offset="0.25" stop-color="#FF6A00"/>
<stop offset="1" stop-color="#FCAC00"/>
</linearGradient>
</defs>
</svg>
