<svg width="19" height="19" viewBox="0 0 19 19" fill="none" xmlns="http://www.w3.org/2000/svg">
<g clip-path="url(#clip0_115_1186)">
<path d="M17.4167 9.69794V17.6146C17.4167 18.3746 16.7913 19 16.0313 19H10.0938V10.2917H8.90626V19H2.96876C2.20876 19 1.58334 18.3746 1.58334 17.6146V9.69794C1.58334 9.37335 1.85251 9.10419 2.17709 9.10419H16.8229C17.1475 9.10419 17.4167 9.37335 17.4167 9.69794Z" fill="#F26E32"/>
<path d="M19 6.9271V8.90627C19 9.66627 18.3746 10.2917 17.6146 10.2917H1.38542C0.625417 10.2917 0 9.66627 0 8.90627V6.9271C0 6.1671 0.625417 5.54169 1.38542 5.54169H17.6146C18.3746 5.54169 19 6.1671 19 6.9271Z" fill="#FF9768"/>
<path d="M9.5 6.36815C9.32742 6.36815 9.16275 6.29294 9.05113 6.16232C8.93792 6.03169 8.88804 5.85832 8.91258 5.68732C9.2055 3.70815 10.7516 -0.0348511 14.5105 -0.0348511C16.6559 -0.0348511 17.4167 1.12415 17.4167 2.1169C17.4167 3.88152 14.9601 6.36815 9.5 6.36815ZM14.5105 1.15265C11.6747 1.15265 10.598 3.84827 10.241 5.16323C12.4783 5.05873 13.889 4.49269 14.7013 4.01057C15.8278 3.34161 16.2292 2.59348 16.2292 2.11611C16.2292 1.40519 15.3417 1.15265 14.5105 1.15265Z" fill="#FFC107"/>
<path d="M9.5008 6.36815C4.03989 6.36815 1.58414 3.88152 1.58414 2.1169C1.58414 1.12415 2.34572 -0.0348511 4.49114 -0.0348511C8.24918 -0.0348511 9.7953 3.70815 10.0882 5.68732C10.1128 5.85832 10.0629 6.03169 9.94968 6.16232C9.83805 6.29294 9.67339 6.36815 9.5008 6.36815ZM4.49114 1.15265C3.65989 1.15265 2.77164 1.40598 2.77164 2.1169C2.77164 3.12786 4.53943 4.96927 8.7598 5.16402C8.40276 3.84827 7.3261 1.15265 4.49114 1.15265Z" fill="#FFC107"/>
<path d="M10.0938 10.2917V19H8.90625V10.2917H10.0938Z" fill="#FF8F00"/>
<path d="M10.0938 6.00875V10.2917H8.90625V6.00875C8.90625 5.82746 8.96958 5.66121 9.0725 5.54167C9.18333 5.42292 9.33375 5.34375 9.5 5.34375C9.66625 5.34375 9.81667 5.42292 9.9275 5.54167C10.0304 5.66042 10.0938 5.82667 10.0938 6.00875Z" fill="#FFC107"/>
<path d="M8.90626 10.2917H1.58334V17.6146C1.58334 18.3746 2.20876 19 2.96876 19H8.90626V10.2917Z" fill="#FE5408"/>
<path d="M4.72308 5.54169H1.38542C0.625417 5.54169 0 6.1671 0 6.9271V8.90627C0 9.66627 0.625417 10.2917 1.38542 10.2917H1.58333H8.90625V6.3579C7.20258 6.29931 5.814 5.99056 4.72308 5.54169Z" fill="#FF9768"/>
<path d="M4.49114 1.15265C3.65989 1.15265 2.77164 1.40598 2.77164 2.1169C2.77164 3.12786 4.53943 4.96927 8.7598 5.16402C8.40276 3.84827 7.3261 1.15265 4.49114 1.15265Z" fill="#DEDEDE"/>
<path d="M8.75901 5.16323C4.53943 4.96927 2.77085 3.12786 2.77085 2.11611C2.77085 1.40519 3.6591 1.15186 4.49035 1.15186C7.3261 1.15265 8.40276 3.84827 8.75901 5.16323ZM4.49114 -0.0348511C2.34572 -0.0348511 1.58414 1.12415 1.58414 2.1169C1.58414 3.24265 2.58322 4.66132 4.7231 5.54165C5.8148 5.99052 7.2026 6.29927 8.90626 6.35786V6.00873C8.90626 5.82744 8.9696 5.66119 9.07251 5.54165C9.18335 5.4229 9.33376 5.34373 9.50001 5.34373V3.66936C8.72101 1.86198 7.16618 -0.0348511 4.49114 -0.0348511Z" fill="#DEA806"/>
<path d="M9.5 10.2917H8.90625V19H9.5V10.2917Z" fill="#DE7C00"/>
<path d="M9.5 5.34375C9.33375 5.34375 9.18333 5.42292 9.0725 5.54167C8.96958 5.66042 8.90625 5.82667 8.90625 6.00875V6.35788V10.2917H9.5V5.34375Z" fill="#DEA806"/>
</g>
<defs>
<clipPath id="clip0_115_1186">
<rect width="19" height="19" fill="white"/>
</clipPath>
</defs>
</svg>
